<svg width="336" height="79" viewBox="0 0 336 79" fill="none" xmlns="http://www.w3.org/2000/svg">
<path d="M45.1261 31.6772H36.4933C36.247 30.2615 35.7931 29.0073 35.1314 27.9148C34.4697 26.8068 33.6464 25.8681 32.6616 25.0987C31.6767 24.3293 30.5534 23.7522 29.2915 23.3675C28.0451 22.9674 26.6986 22.7674 25.2521 22.7674C22.6823 22.7674 20.4048 23.4137 18.4197 24.7063C16.4347 25.9835 14.8804 27.8609 13.7571 30.3384C12.6338 32.8005 12.0721 35.8089 12.0721 39.3636C12.0721 42.9799 12.6338 46.0268 13.7571 48.5043C14.8958 50.9664 16.45 52.8284 18.4197 54.0902C20.4048 55.3366 22.6746 55.9599 25.229 55.9599C26.6448 55.9599 27.9682 55.7752 29.1992 55.4059C30.4457 55.0212 31.5613 54.4595 32.5462 53.7209C33.5464 52.9822 34.3851 52.0743 35.0621 50.9972C35.7546 49.92 36.2317 48.6889 36.4933 47.304L45.1261 47.3501C44.8029 49.5968 44.1027 51.705 43.0256 53.6747C41.9638 55.6444 40.5711 57.3833 38.8477 58.8913C37.1242 60.384 35.1083 61.5535 32.8001 62.3999C30.4918 63.2308 27.9297 63.6463 25.1136 63.6463C20.9588 63.6463 17.2502 62.6845 13.9879 60.761C10.7256 58.8375 8.15578 56.0599 6.27841 52.4283C4.40104 48.7966 3.46236 44.4418 3.46236 39.3636C3.46236 34.2701 4.40874 29.9152 6.30149 26.299C8.19425 22.6674 10.7718 19.8898 14.0341 17.9663C17.2964 16.0427 20.9896 15.081 25.1136 15.081C27.745 15.081 30.1918 15.4503 32.4538 16.1889C34.7159 16.9276 36.7318 18.0124 38.5014 19.4435C40.2711 20.8593 41.7253 22.5981 42.864 24.6602C44.0181 26.7068 44.7721 29.0458 45.1261 31.6772ZM66.7642 63.6925C63.3018 63.6925 60.3011 62.9308 57.7621 61.4073C55.223 59.8839 53.2533 57.7526 51.853 55.0135C50.468 52.2744 49.7756 49.0736 49.7756 45.4112C49.7756 41.7488 50.468 38.5404 51.853 35.7859C53.2533 33.0314 55.223 30.8924 57.7621 29.369C60.3011 27.8455 63.3018 27.0838 66.7642 27.0838C70.2265 27.0838 73.2273 27.8455 75.7663 29.369C78.3054 30.8924 80.2674 33.0314 81.6523 35.7859C83.0527 38.5404 83.7528 41.7488 83.7528 45.4112C83.7528 49.0736 83.0527 52.2744 81.6523 55.0135C80.2674 57.7526 78.3054 59.8839 75.7663 61.4073C73.2273 62.9308 70.2265 63.6925 66.7642 63.6925ZM66.8104 56.9986C68.6877 56.9986 70.2573 56.4831 71.5192 55.4521C72.781 54.4057 73.7197 53.0053 74.3352 51.2511C74.9661 49.4968 75.2816 47.5425 75.2816 45.3881C75.2816 43.2184 74.9661 41.2564 74.3352 39.5021C73.7197 37.7325 72.781 36.3245 71.5192 35.2781C70.2573 34.2317 68.6877 33.7085 66.8104 33.7085C64.8868 33.7085 63.2864 34.2317 62.0092 35.2781C60.7474 36.3245 59.801 37.7325 59.1701 39.5021C58.5546 41.2564 58.2468 43.2184 58.2468 45.3881C58.2468 47.5425 58.5546 49.4968 59.1701 51.2511C59.801 53.0053 60.7474 54.4057 62.0092 55.4521C63.2864 56.4831 64.8868 56.9986 66.8104 56.9986ZM89.5449 63V27.5455H97.5314V33.57H97.9469C98.6855 31.5387 99.9089 29.9537 101.617 28.815C103.325 27.6609 105.364 27.0838 107.734 27.0838C110.134 27.0838 112.158 27.6686 113.804 28.8381C115.466 29.9922 116.636 31.5695 117.313 33.57H117.682C118.467 31.6003 119.791 30.0307 121.652 28.8612C123.53 27.6763 125.753 27.0838 128.323 27.0838C131.586 27.0838 134.248 28.1148 136.31 30.1768C138.372 32.2389 139.403 35.2473 139.403 39.2021V63H131.024V40.4947C131.024 38.2942 130.439 36.6861 129.27 35.6705C128.1 34.6394 126.669 34.1239 124.976 34.1239C122.96 34.1239 121.383 34.7549 120.244 36.0167C119.121 37.2631 118.559 38.8866 118.559 40.8871V63H110.365V40.1484C110.365 38.3172 109.811 36.8553 108.703 35.7628C107.611 34.6702 106.18 34.1239 104.41 34.1239C103.21 34.1239 102.117 34.4317 101.132 35.0472C100.147 35.6474 99.3626 36.5014 98.7778 37.6094C98.1931 38.7019 97.9007 39.9792 97.9007 41.441V63H89.5449ZM146.58 76.2955V27.5455H154.797V33.4084H155.282C155.713 32.5466 156.321 31.631 157.105 30.6616C157.89 29.6767 158.952 28.8381 160.291 28.1456C161.63 27.4377 163.338 27.0838 165.415 27.0838C168.154 27.0838 170.624 27.784 172.825 29.1843C175.04 30.5692 176.795 32.6236 178.087 35.3473C179.395 38.0556 180.049 41.3795 180.049 45.3189C180.049 49.2121 179.411 52.5206 178.133 55.2443C176.856 57.968 175.117 60.0455 172.917 61.4766C170.716 62.9077 168.223 63.6232 165.438 63.6232C163.407 63.6232 161.722 63.2847 160.383 62.6076C159.044 61.9305 157.967 61.1149 157.152 60.1609C156.351 59.1914 155.728 58.2758 155.282 57.4141H154.936V76.2955H146.58ZM154.774 45.2727C154.774 47.5656 155.097 49.5737 155.744 51.2972C156.405 53.0207 157.352 54.3672 158.583 55.3366C159.829 56.2907 161.337 56.7678 163.107 56.7678C164.953 56.7678 166.5 56.2753 167.746 55.2905C168.993 54.2902 169.932 52.9284 170.562 51.2049C171.209 49.466 171.532 47.4886 171.532 45.2727C171.532 43.0722 171.216 41.1179 170.586 39.4098C169.955 37.7017 169.016 36.3629 167.769 35.3935C166.523 34.424 164.969 33.9393 163.107 33.9393C161.322 33.9393 159.806 34.4086 158.56 35.3473C157.313 36.286 156.367 37.6017 155.72 39.2944C155.09 40.9871 154.774 42.9799 154.774 45.2727ZM194.261 15.7273V63H185.905V15.7273H194.261ZM206.747 76.2955C205.608 76.2955 204.554 76.2031 203.584 76.0185C202.63 75.8492 201.869 75.6491 201.299 75.4183L203.238 68.9091C204.454 69.263 205.539 69.4323 206.493 69.4169C207.447 69.4015 208.285 69.1014 209.009 68.5167C209.747 67.9473 210.371 66.9933 210.878 65.6545L211.594 63.7386L198.737 27.5455H207.601L215.772 54.321H216.141L224.335 27.5455H233.222L219.026 67.2933C218.365 69.1707 217.488 70.7788 216.395 72.1175C215.302 73.4717 213.964 74.5027 212.379 75.2106C210.809 75.9338 208.932 76.2955 206.747 76.2955Z" fill="#0D2A4A"/>
<path d="M238.074 63V15.7273H268.819V22.9059H246.637V35.7397H267.227V42.9183H246.637V55.8214H269.004V63H238.074ZM298.484 48.0888V27.5455H306.84V63H298.738V56.6985H298.369C297.569 58.6836 296.253 60.3071 294.422 61.5689C292.606 62.8307 290.367 63.4616 287.705 63.4616C285.381 63.4616 283.327 62.9461 281.542 61.9151C279.772 60.8687 278.387 59.353 277.387 57.3679C276.387 55.3674 275.887 52.9515 275.887 50.12V27.5455H284.243V48.8274C284.243 51.0741 284.858 52.8591 286.089 54.1825C287.32 55.5059 288.936 56.1676 290.936 56.1676C292.167 56.1676 293.36 55.8675 294.514 55.2674C295.668 54.6673 296.615 53.7747 297.353 52.5898C298.107 51.3896 298.484 49.8892 298.484 48.0888ZM314.133 63V27.5455H322.235V33.4545H322.604C323.25 31.4079 324.358 29.8306 325.928 28.7227C327.513 27.5993 329.321 27.0376 331.352 27.0376C331.814 27.0376 332.329 27.0607 332.899 27.1069C333.483 27.1377 333.968 27.1915 334.353 27.2685V34.9549C333.999 34.8318 333.437 34.7241 332.668 34.6317C331.914 34.524 331.183 34.4702 330.475 34.4702C328.951 34.4702 327.582 34.801 326.366 35.4627C325.166 36.109 324.22 37.0092 323.527 38.1634C322.835 39.3175 322.488 40.6486 322.488 42.1566V63H314.133Z" fill="#385070"/>
</svg>
