<svg width="336" height="155" viewBox="0 0 336 155" fill="none" xmlns="http://www.w3.org/2000/svg">
<path d="M205.431 23.4518L186.142 34.076L167.39 23.4518L149.15 34.076L130.474 23.4518L167.39 0.433594L205.431 23.4518Z" fill="#0D2A4A"/>
<path d="M188.672 55.1562V38.3693L207.781 27.7599V65.8758L188.672 55.1562Z" fill="#385070"/>
<path d="M205.834 69.4883L186.545 59.6674L167.793 69.4883L149.553 59.6674L130.877 69.4883L167.793 91.2036L205.834 69.4883Z" fill="#0D2A4A"/>
<path d="M146.851 55.1562L127 65.8758V27.7599L146.851 38.3693V47.3387V55.1562Z" fill="#0D2A4A"/>
<path d="M167.827 69.0721L186.375 59.3587L186.573 59.2544L206.78 69.5425L167.821 91.7815L130.016 69.5429L149.586 59.2514L167.827 69.0721ZM167.828 69.5425L149.581 60.2351L131.801 69.5854L167.828 90.7776L204.95 69.5858L186.579 60.2322L167.828 69.5425ZM208.649 66.6933L188.671 55.4863V38.1897L208.649 27.098V66.6933ZM146.85 38.7055L127.868 28.56V65.2237L146.85 54.9726V38.7055ZM189.54 38.7009V54.9772L207.781 65.2098V28.5735L189.54 38.7009ZM206.733 23.5453L186.573 34.6492L167.827 24.0283L149.586 34.653L130.06 23.5449L167.821 0L206.733 23.5453ZM131.757 23.5104L149.581 33.6508L167.606 23.1524L167.822 23.027L186.579 33.6542L204.997 23.5096L167.828 1.01901L131.757 23.5104ZM147.719 55.4909L147.491 55.6142L127 66.6798V27.111L147.49 38.0622L147.719 38.1851V55.4909Z" fill="#385070"/>
<path d="M45.1261 107.677H36.4933C36.247 106.261 35.7931 105.007 35.1314 103.915C34.4697 102.807 33.6464 101.868 32.6616 101.099C31.6767 100.329 30.5534 99.7522 29.2915 99.3675C28.0451 98.9674 26.6986 98.7674 25.2521 98.7674C22.6823 98.7674 20.4048 99.4137 18.4197 100.706C16.4347 101.984 14.8804 103.861 13.7571 106.338C12.6338 108.801 12.0721 111.809 12.0721 115.364C12.0721 118.98 12.6338 122.027 13.7571 124.504C14.8958 126.966 16.45 128.828 18.4197 130.09C20.4048 131.337 22.6746 131.96 25.229 131.96C26.6448 131.96 27.9682 131.775 29.1992 131.406C30.4457 131.021 31.5613 130.46 32.5462 129.721C33.5464 128.982 34.3851 128.074 35.0621 126.997C35.7546 125.92 36.2317 124.689 36.4933 123.304L45.1261 123.35C44.8029 125.597 44.1027 127.705 43.0256 129.675C41.9638 131.644 40.5711 133.383 38.8477 134.891C37.1242 136.384 35.1083 137.554 32.8001 138.4C30.4918 139.231 27.9297 139.646 25.1136 139.646C20.9588 139.646 17.2502 138.685 13.9879 136.761C10.7256 134.837 8.15578 132.06 6.27841 128.428C4.40104 124.797 3.46236 120.442 3.46236 115.364C3.46236 110.27 4.40874 105.915 6.30149 102.299C8.19425 98.6674 10.7718 95.8898 14.0341 93.9663C17.2964 92.0427 20.9896 91.081 25.1136 91.081C27.745 91.081 30.1918 91.4503 32.4538 92.1889C34.7159 92.9276 36.7318 94.0124 38.5014 95.4435C40.2711 96.8593 41.7253 98.5981 42.864 100.66C44.0181 102.707 44.7721 105.046 45.1261 107.677ZM66.7642 139.692C63.3018 139.692 60.3011 138.931 57.7621 137.407C55.223 135.884 53.2533 133.753 51.853 131.013C50.468 128.274 49.7756 125.074 49.7756 121.411C49.7756 117.749 50.468 114.54 51.853 111.786C53.2533 109.031 55.223 106.892 57.7621 105.369C60.3011 103.846 63.3018 103.084 66.7642 103.084C70.2265 103.084 73.2273 103.846 75.7663 105.369C78.3054 106.892 80.2674 109.031 81.6523 111.786C83.0527 114.54 83.7528 117.749 83.7528 121.411C83.7528 125.074 83.0527 128.274 81.6523 131.013C80.2674 133.753 78.3054 135.884 75.7663 137.407C73.2273 138.931 70.2265 139.692 66.7642 139.692ZM66.8104 132.999C68.6877 132.999 70.2573 132.483 71.5192 131.452C72.781 130.406 73.7197 129.005 74.3352 127.251C74.9661 125.497 75.2816 123.542 75.2816 121.388C75.2816 119.218 74.9661 117.256 74.3352 115.502C73.7197 113.732 72.781 112.324 71.5192 111.278C70.2573 110.232 68.6877 109.708 66.8104 109.708C64.8868 109.708 63.2864 110.232 62.0092 111.278C60.7474 112.324 59.801 113.732 59.1701 115.502C58.5546 117.256 58.2468 119.218 58.2468 121.388C58.2468 123.542 58.5546 125.497 59.1701 127.251C59.801 129.005 60.7474 130.406 62.0092 131.452C63.2864 132.483 64.8868 132.999 66.8104 132.999ZM89.5449 139V103.545H97.5314V109.57H97.9469C98.6855 107.539 99.9089 105.954 101.617 104.815C103.325 103.661 105.364 103.084 107.734 103.084C110.134 103.084 112.158 103.669 113.804 104.838C115.466 105.992 116.636 107.569 117.313 109.57H117.682C118.467 107.6 119.791 106.031 121.652 104.861C123.53 103.676 125.753 103.084 128.323 103.084C131.586 103.084 134.248 104.115 136.31 106.177C138.372 108.239 139.403 111.247 139.403 115.202V139H131.024V116.495C131.024 114.294 130.439 112.686 129.27 111.67C128.1 110.639 126.669 110.124 124.976 110.124C122.96 110.124 121.383 110.755 120.244 112.017C119.121 113.263 118.559 114.887 118.559 116.887V139H110.365V116.148C110.365 114.317 109.811 112.855 108.703 111.763C107.611 110.67 106.18 110.124 104.41 110.124C103.21 110.124 102.117 110.432 101.132 111.047C100.147 111.647 99.3626 112.501 98.7778 113.609C98.1931 114.702 97.9007 115.979 97.9007 117.441V139H89.5449ZM146.58 152.295V103.545H154.797V109.408H155.282C155.713 108.547 156.321 107.631 157.105 106.662C157.89 105.677 158.952 104.838 160.291 104.146C161.63 103.438 163.338 103.084 165.415 103.084C168.154 103.084 170.624 103.784 172.825 105.184C175.04 106.569 176.795 108.624 178.087 111.347C179.395 114.056 180.049 117.379 180.049 121.319C180.049 125.212 179.411 128.521 178.133 131.244C176.856 133.968 175.117 136.045 172.917 137.477C170.716 138.908 168.223 139.623 165.438 139.623C163.407 139.623 161.722 139.285 160.383 138.608C159.044 137.931 157.967 137.115 157.152 136.161C156.351 135.191 155.728 134.276 155.282 133.414H154.936V152.295H146.58ZM154.774 121.273C154.774 123.566 155.097 125.574 155.744 127.297C156.405 129.021 157.352 130.367 158.583 131.337C159.829 132.291 161.337 132.768 163.107 132.768C164.953 132.768 166.5 132.275 167.746 131.29C168.993 130.29 169.932 128.928 170.562 127.205C171.209 125.466 171.532 123.489 171.532 121.273C171.532 119.072 171.216 117.118 170.586 115.41C169.955 113.702 169.016 112.363 167.769 111.393C166.523 110.424 164.969 109.939 163.107 109.939C161.322 109.939 159.806 110.409 158.56 111.347C157.313 112.286 156.367 113.602 155.72 115.294C155.09 116.987 154.774 118.98 154.774 121.273ZM194.261 91.7273V139H185.905V91.7273H194.261ZM206.747 152.295C205.608 152.295 204.554 152.203 203.584 152.018C202.63 151.849 201.869 151.649 201.299 151.418L203.238 144.909C204.454 145.263 205.539 145.432 206.493 145.417C207.447 145.402 208.285 145.101 209.009 144.517C209.747 143.947 210.371 142.993 210.878 141.654L211.594 139.739L198.737 103.545H207.601L215.772 130.321H216.141L224.335 103.545H233.222L219.026 143.293C218.365 145.171 217.488 146.779 216.395 148.118C215.302 149.472 213.964 150.503 212.379 151.211C210.809 151.934 208.932 152.295 206.747 152.295Z" fill="#0D2A4A"/>
<path d="M238.074 139V91.7273H268.819V98.9059H246.637V111.74H267.227V118.918H246.637V131.821H269.004V139H238.074ZM298.484 124.089V103.545H306.84V139H298.738V132.699H298.369C297.569 134.684 296.253 136.307 294.422 137.569C292.606 138.831 290.367 139.462 287.705 139.462C285.381 139.462 283.327 138.946 281.542 137.915C279.772 136.869 278.387 135.353 277.387 133.368C276.387 131.367 275.887 128.951 275.887 126.12V103.545H284.243V124.827C284.243 127.074 284.858 128.859 286.089 130.183C287.32 131.506 288.936 132.168 290.936 132.168C292.167 132.168 293.36 131.868 294.514 131.267C295.668 130.667 296.615 129.775 297.353 128.59C298.107 127.39 298.484 125.889 298.484 124.089ZM314.133 139V103.545H322.235V109.455H322.604C323.25 107.408 324.358 105.831 325.928 104.723C327.513 103.599 329.321 103.038 331.352 103.038C331.814 103.038 332.329 103.061 332.899 103.107C333.483 103.138 333.968 103.192 334.353 103.268V110.955C333.999 110.832 333.437 110.724 332.668 110.632C331.914 110.524 331.183 110.47 330.475 110.47C328.951 110.47 327.582 110.801 326.366 111.463C325.166 112.109 324.22 113.009 323.527 114.163C322.835 115.317 322.488 116.649 322.488 118.157V139H314.133Z" fill="#385070"/>
</svg>
