<svg width="417" height="92" viewBox="0 0 417 92" fill="none" xmlns="http://www.w3.org/2000/svg">
<path d="M78.431 23.4518L59.1419 34.076L40.3905 23.4518L22.1496 34.076L3.47445 23.4518L40.3905 0.433594L78.431 23.4518Z" fill="#0D2A4A"/>
<path d="M61.6715 55.1562V38.3693L80.781 27.7599V65.8758L61.6715 55.1562Z" fill="#385070"/>
<path d="M78.834 69.4883L59.5449 59.6674L40.7935 69.4883L22.5526 59.6674L3.87745 69.4883L40.7935 91.2036L78.834 69.4883Z" fill="#0D2A4A"/>
<path d="M19.8506 55.1562L0 65.8758V27.7599L19.8506 38.3693V47.3387V55.1562Z" fill="#0D2A4A"/>
<path d="M40.8272 69.0721L59.3747 59.3587L59.5733 59.2544L79.7797 69.5425L40.8214 91.7815L3.01579 69.5429L22.5861 59.2514L40.8272 69.0721ZM40.8281 69.5425L22.581 60.2351L4.80137 69.5854L40.8281 90.7776L77.9504 69.5858L59.5788 60.2322L40.8281 69.5425ZM81.6494 66.6933L61.6715 55.4863V38.1897L81.6494 27.098V66.6933ZM19.8505 38.7055L0.868387 28.56V65.2237L19.8505 54.9726V38.7055ZM62.5399 38.7009V54.9772L80.781 65.2098V28.5735L62.5399 38.7009ZM79.7334 23.5453L59.5733 34.6492L40.8272 24.0283L22.5865 34.653L3.06039 23.5449L40.8214 0L79.7334 23.5453ZM4.75678 23.5104L22.581 33.6508L40.6059 23.1524L40.8218 23.027L59.5788 33.6542L77.9971 23.5096L40.8281 1.01901L4.75678 23.5104ZM20.7189 55.4909L20.4912 55.6142L0 66.6798V27.111L20.4896 38.0622L20.7189 38.1851V55.4909Z" fill="#385070"/>
<path d="M126.126 38.6772H117.493C117.247 37.2615 116.793 36.0073 116.131 34.9148C115.47 33.8068 114.646 32.8681 113.662 32.0987C112.677 31.3293 111.553 30.7522 110.292 30.3675C109.045 29.9674 107.699 29.7674 106.252 29.7674C103.682 29.7674 101.405 30.4137 99.4197 31.7063C97.4347 32.9835 95.8804 34.8609 94.7571 37.3384C93.6338 39.8005 93.0721 42.8089 93.0721 46.3636C93.0721 49.9799 93.6338 53.0268 94.7571 55.5043C95.8958 57.9664 97.45 59.8284 99.4197 61.0902C101.405 62.3366 103.675 62.9599 106.229 62.9599C107.645 62.9599 108.968 62.7752 110.199 62.4059C111.446 62.0212 112.561 61.4595 113.546 60.7209C114.546 59.9822 115.385 59.0743 116.062 57.9972C116.755 56.92 117.232 55.6889 117.493 54.304L126.126 54.3501C125.803 56.5968 125.103 58.705 124.026 60.6747C122.964 62.6444 121.571 64.3833 119.848 65.8913C118.124 67.384 116.108 68.5535 113.8 69.3999C111.492 70.2308 108.93 70.6463 106.114 70.6463C101.959 70.6463 98.2502 69.6845 94.9879 67.761C91.7256 65.8375 89.1558 63.0599 87.2784 59.4283C85.401 55.7966 84.4624 51.4418 84.4624 46.3636C84.4624 41.2701 85.4087 36.9152 87.3015 33.299C89.1942 29.6674 91.7718 26.8898 95.0341 24.9663C98.2964 23.0427 101.99 22.081 106.114 22.081C108.745 22.081 111.192 22.4503 113.454 23.1889C115.716 23.9276 117.732 25.0124 119.501 26.4435C121.271 27.8593 122.725 29.5981 123.864 31.6602C125.018 33.7068 125.772 36.0458 126.126 38.6772ZM147.764 70.6925C144.302 70.6925 141.301 69.9308 138.762 68.4073C136.223 66.8839 134.253 64.7526 132.853 62.0135C131.468 59.2744 130.776 56.0736 130.776 52.4112C130.776 48.7488 131.468 45.5404 132.853 42.7859C134.253 40.0314 136.223 37.8924 138.762 36.369C141.301 34.8455 144.302 34.0838 147.764 34.0838C151.227 34.0838 154.227 34.8455 156.766 36.369C159.305 37.8924 161.267 40.0314 162.652 42.7859C164.053 45.5404 164.753 48.7488 164.753 52.4112C164.753 56.0736 164.053 59.2744 162.652 62.0135C161.267 64.7526 159.305 66.8839 156.766 68.4073C154.227 69.9308 151.227 70.6925 147.764 70.6925ZM147.81 63.9986C149.688 63.9986 151.257 63.4831 152.519 62.4521C153.781 61.4057 154.72 60.0053 155.335 58.2511C155.966 56.4968 156.282 54.5425 156.282 52.3881C156.282 50.2184 155.966 48.2564 155.335 46.5021C154.72 44.7325 153.781 43.3245 152.519 42.2781C151.257 41.2317 149.688 40.7085 147.81 40.7085C145.887 40.7085 144.286 41.2317 143.009 42.2781C141.747 43.3245 140.801 44.7325 140.17 46.5021C139.555 48.2564 139.247 50.2184 139.247 52.3881C139.247 54.5425 139.555 56.4968 140.17 58.2511C140.801 60.0053 141.747 61.4057 143.009 62.4521C144.286 63.4831 145.887 63.9986 147.81 63.9986ZM170.545 70V34.5455H178.531V40.57H178.947C179.686 38.5387 180.909 36.9537 182.617 35.815C184.325 34.6609 186.364 34.0838 188.734 34.0838C191.134 34.0838 193.158 34.6686 194.804 35.8381C196.466 36.9922 197.636 38.5695 198.313 40.57H198.682C199.467 38.6003 200.791 37.0307 202.652 35.8612C204.53 34.6763 206.753 34.0838 209.323 34.0838C212.586 34.0838 215.248 35.1148 217.31 37.1768C219.372 39.2389 220.403 42.2473 220.403 46.2021V70H212.024V47.4947C212.024 45.2942 211.439 43.6861 210.27 42.6705C209.1 41.6394 207.669 41.1239 205.976 41.1239C203.96 41.1239 202.383 41.7549 201.244 43.0167C200.121 44.2631 199.559 45.8866 199.559 47.8871V70H191.365V47.1484C191.365 45.3172 190.811 43.8553 189.703 42.7628C188.611 41.6702 187.18 41.1239 185.41 41.1239C184.21 41.1239 183.117 41.4317 182.132 42.0472C181.147 42.6474 180.363 43.5014 179.778 44.6094C179.193 45.7019 178.901 46.9792 178.901 48.441V70H170.545ZM227.58 83.2955V34.5455H235.797V40.4084H236.282C236.713 39.5466 237.321 38.631 238.105 37.6616C238.89 36.6767 239.952 35.8381 241.291 35.1456C242.63 34.4377 244.338 34.0838 246.415 34.0838C249.154 34.0838 251.624 34.784 253.825 36.1843C256.04 37.5692 257.795 39.6236 259.087 42.3473C260.395 45.0556 261.049 48.3795 261.049 52.3189C261.049 56.2121 260.411 59.5206 259.133 62.2443C257.856 64.968 256.117 67.0455 253.917 68.4766C251.716 69.9077 249.223 70.6232 246.438 70.6232C244.407 70.6232 242.722 70.2847 241.383 69.6076C240.044 68.9305 238.967 68.1149 238.152 67.1609C237.351 66.1914 236.728 65.2758 236.282 64.4141H235.936V83.2955H227.58ZM235.774 52.2727C235.774 54.5656 236.097 56.5737 236.744 58.2972C237.405 60.0207 238.352 61.3672 239.583 62.3366C240.829 63.2907 242.337 63.7678 244.107 63.7678C245.953 63.7678 247.5 63.2753 248.746 62.2905C249.993 61.2902 250.932 59.9284 251.562 58.2049C252.209 56.466 252.532 54.4886 252.532 52.2727C252.532 50.0722 252.216 48.1179 251.586 46.4098C250.955 44.7017 250.016 43.3629 248.769 42.3935C247.523 41.424 245.969 40.9393 244.107 40.9393C242.322 40.9393 240.806 41.4086 239.56 42.3473C238.313 43.286 237.367 44.6017 236.72 46.2944C236.09 47.9871 235.774 49.9799 235.774 52.2727ZM275.261 22.7273V70H266.905V22.7273H275.261ZM287.747 83.2955C286.608 83.2955 285.554 83.2031 284.584 83.0185C283.63 82.8492 282.869 82.6491 282.299 82.4183L284.238 75.9091C285.454 76.263 286.539 76.4323 287.493 76.4169C288.447 76.4015 289.285 76.1014 290.009 75.5167C290.747 74.9473 291.371 73.9933 291.878 72.6545L292.594 70.7386L279.737 34.5455H288.601L296.772 61.321H297.141L305.335 34.5455H314.222L300.026 74.2933C299.365 76.1707 298.488 77.7788 297.395 79.1175C296.302 80.4717 294.964 81.5027 293.379 82.2106C291.809 82.9338 289.932 83.2955 287.747 83.2955Z" fill="#0D2A4A"/>
<path d="M319.074 70V22.7273H349.819V29.9059H327.637V42.7397H348.227V49.9183H327.637V62.8214H350.004V70H319.074ZM379.484 55.0888V34.5455H387.84V70H379.738V63.6985H379.369C378.569 65.6836 377.253 67.3071 375.422 68.5689C373.606 69.8307 371.367 70.4616 368.705 70.4616C366.381 70.4616 364.327 69.9461 362.542 68.9151C360.772 67.8687 359.387 66.353 358.387 64.3679C357.387 62.3674 356.887 59.9515 356.887 57.12V34.5455H365.243V55.8274C365.243 58.0741 365.858 59.8591 367.089 61.1825C368.32 62.5059 369.936 63.1676 371.936 63.1676C373.167 63.1676 374.36 62.8675 375.514 62.2674C376.668 61.6673 377.615 60.7747 378.353 59.5898C379.107 58.3896 379.484 56.8892 379.484 55.0888ZM395.133 70V34.5455H403.235V40.4545H403.604C404.25 38.4079 405.358 36.8306 406.928 35.7227C408.513 34.5993 410.321 34.0376 412.352 34.0376C412.814 34.0376 413.329 34.0607 413.899 34.1069C414.483 34.1377 414.968 34.1915 415.353 34.2685V41.9549C414.999 41.8318 414.437 41.7241 413.668 41.6317C412.914 41.524 412.183 41.4702 411.475 41.4702C409.951 41.4702 408.582 41.801 407.366 42.4627C406.166 43.109 405.22 44.0092 404.527 45.1634C403.835 46.3175 403.488 47.6486 403.488 49.1566V70H395.133Z" fill="#385070"/>
</svg>
