<svg width="203" height="229" viewBox="0 0 203 229" fill="none" xmlns="http://www.w3.org/2000/svg">
<path d="M194.998 58.307L147.041 84.7212L100.42 58.307L55.0693 84.7212L8.63832 58.307L100.42 1.07812L194.998 58.307Z" fill="#0D2A4A"/>
<path d="M153.33 137.132V95.3953L200.841 69.0178V163.783L153.33 137.132Z" fill="#385070"/>
<path d="M196 172.765L148.043 148.348L101.422 172.765L56.0712 148.348L9.64027 172.765L101.422 226.754L196 172.765Z" fill="#0D2A4A"/>
<path d="M49.3532 137.132L0 163.783V69.0178L49.3532 95.3953V117.695V137.132Z" fill="#0D2A4A"/>
<path d="M101.506 171.73L147.62 147.58L148.113 147.321L198.351 172.899L101.492 228.191L7.49799 172.9L56.1543 147.313L101.506 171.73ZM101.508 172.899L56.1418 149.759L11.9374 173.006L101.508 225.695L193.803 173.007L148.127 149.752L101.508 172.899ZM203 165.816L153.33 137.952V94.9487L203 67.372V165.816ZM49.353 96.2311L2.15902 71.007V162.162L49.353 136.675V96.2311ZM155.489 96.2196V136.687L200.841 162.127V71.0405L155.489 96.2196ZM198.236 58.5393L148.113 86.1463L101.506 59.7402L56.1554 86.1557L7.60887 58.5383L101.492 0L198.236 58.5393ZM11.8265 58.4525L56.1418 83.664L100.956 57.5623L101.493 57.2506L148.127 83.6724L193.919 58.4504L101.508 2.5335L11.8265 58.4525ZM51.512 137.964L50.9461 138.27L0 165.782V67.4045L50.9419 94.6317L51.512 94.9372V137.964Z" fill="#385070"/>
</svg>
